<svg version="1.0" xmlns="http://www.w3.org/2000/svg" width="1600" height="1433.333" viewBox="0 0 1200 1075"><g fill="#fff"><path d="M696.7 53.1C691.5 85 677.3 107 628 160c-8.5 9.1-55.7 57-105 106.5-98.6 99.1-111 112.2-129.2 136.1-28.9 38-44.7 81.8-44.8 124.1 0 17.5 1.6 32 4.8 41.8l2.6 8 1.8-12.5c6.8-46.6 22.9-76.1 70.2-128.5 5.5-6.1 54.1-55.3 108.1-109.5 54-54.2 101.8-102.6 106.2-107.6 28.4-32.1 47-61.9 53.9-86.4 2.7-9.5 2.7-9.6 3.1-49.8.3-22.1.1-40.2-.4-40.2-.4 0-1.6 5-2.6 11.1z"/><path d="M697.6 161.3c-3.5 27-15 48.3-44.4 82.4-18.7 21.7-27.9 31.2-123.1 127.2-95.4 96.3-97.6 98.6-113.8 118.6-39.6 49-57.3 95-53.3 138 2.6 28 10.3 51.3 20.7 62.3 5.1 5.4 5.1 5.3 1.3-8.3-3.4-12.3-3.8-30.9-1-44.5 6.4-31.2 26.3-65.3 59-101.5 4-4.4 49.2-50.1 100.4-101.5 88.5-88.9 101.2-102.1 117.1-122 14.4-18.1 27.8-41 33.9-57.8 4.9-13.7 5.6-21.2 5.6-60.8 0-33.8-.8-44.6-2.4-32.1z"/><path d="M698.8 272.6c-.5.4-.8 2.1-.8 3.8 0 5.3-4.7 24-7.9 31.7-8.4 20.1-24.1 41-59.4 79.2-7.8 8.3-50.8 52.1-95.7 97.2-44.9 45.1-84.9 85.7-88.9 90.3-25 28.8-38 53.6-43.7 83.7-2.6 13.6-2.4 39.3.4 50.6 4.8 19.4 11.7 32.4 23.1 43.1 9.7 9.2 23.1 15.6 27.6 13 1.5-.8 1.2-1.2-1.9-3.1-5.1-3.2-11.1-10.4-14.6-17.5-11.4-23.3-5.9-59.5 14.2-93.6 12.9-21.9 16.7-26 105.3-115 80.5-80.8 91.8-92.8 106.7-112 19.8-25.6 32.4-51.5 35.8-73 1.2-8.3 1-79.7-.2-78.4zM776.6 359c10.6 6 18.4 16.9 21.9 30.5 2 7.7 2 25.9-.1 36.5-4.3 22.8-16.8 47.7-36.2 72-4.2 5.2-21.1 23-37.5 39.5-16.5 16.5-34.9 35.8-40.9 43-19.3 23-34.1 46.9-40.7 65.7-5.8 16.6-6.1 20.1-6.1 62.3 0 21.2.4 38.5.8 38.5s1.3-3.6 2-8.1c2.7-17.2 12.2-39.6 24.5-58 15.2-22.8 33-42.9 79.4-89.4 18.6-18.7 37.7-38.5 42.4-44 23.8-27.7 35.6-49.4 42-77.4 2.6-11.2 3.6-37.5 2-49.2-4.4-30.3-16.5-54.4-31.2-62-3.7-1.9-6.3-2.3-15.8-2.5l-11.5-.3 5 2.9z"/><path d="M843.1 433.3c8 20.8 8 46.3-.2 70.9-4.1 12.5-12.3 28.9-21 42.3-14.9 22.9-26.3 35.8-72.9 83-21.2 21.4-43 43.9-48.4 49.9-33.6 37.5-53 68.2-60.9 96.4-2 7.2-2.1 10.5-2.5 49.2-.2 22.8-.1 41.2.2 40.9.3-.3 1.3-4.6 2.1-9.5 4.4-25.1 13.5-44.9 32.3-70.1 14.1-18.8 29.8-35.9 74.7-81.3 42.3-42.9 57.2-59 72.1-78.1 37.1-47.5 53.5-91.9 49.5-134-2.7-28.6-11.1-57.4-18.7-64-1.1-.9-3.5-1.9-5.5-2.2l-3.6-.5 2.8 7.1z"/><path d="M874.6 547.7c-.3 2.1-.8 6.5-1.1 9.8-3.5 32.8-15.6 62.3-38.3 92.8-17.2 23.2-33.4 40.9-89.7 97.7-53.2 53.7-67.5 70-83.4 95.2-5.3 8.5-12.1 21-12.1 22.3 0 .3 11.1.5 24.8.5h24.7l38.6-38.3c72.3-71.5 92.4-93.8 112-124 17.4-26.7 29.8-63.8 31.7-94.2 1-15.7-1.5-56.9-3.8-62.9-1.4-3.7-2.7-3.2-3.4 1.1zM389 694.1c0 .5.5.7 1 .4.6-.3 1-.8 1-1.1 0-.2-.4-.4-1-.4-.5 0-1 .5-1 1.1zM495.5 802.7c-31.9 2.6-38 3.5-124 18.8-40.6 7.3-44.1 7.9-72.5 12.9-65.5 11.6-88.7 15.8-90.3 16.4-2 .8-131.9 180.6-130.7 181 .4.1 16-2.4 34.6-5.7 33.4-5.9 84.3-14.9 201.4-35.7 81.9-14.5 96.1-16.9 114.7-19.3 62.3-7.9 103.6-3.2 130.5 15 13.6 9.3 22.6 19.9 30.3 36l4.5 9.4V909h-62v-43h62.2l-.7-9.3c-1.2-17.5-5.1-28-13.5-36.5-8.9-9-24-14.9-44.4-17.1-8.7-1-30.4-1.2-40.1-.4zM760.4 843.3c-40.9 41.1-58.3 59.2-70.9 73.9-35.1 40.8-50.1 70.7-52.1 104.3l-.5 9 2.8-6c9.8-21.1 21.4-33.9 38.9-43.1 18.8-9.9 37.3-13.6 68.4-13.7 30.3-.1 47.8 2 108.8 12.7 17.2 3.1 40.4 7.1 51.5 9 11.1 1.9 71.2 12.3 133.6 23.1 62.4 10.7 113.5 19.4 113.6 19.3.6-.8-129.7-179.5-131.6-180.6-1.3-.6-25.8-5.3-54.4-10.3-28.6-4.9-55.4-9.6-59.5-10.4-11.6-2.1-22.2-4-68.5-12-23.6-4.2-43.9-7.7-45-8-1.6-.3-9.2 6.7-35.1 32.8zM637 942.6c0 31 .8 40.3 2.4 27.1 1.5-13.5 9.3-34 19.1-50.3 3-5.1 5.5-9.5 5.5-9.8 0-.3-6.1-.6-13.5-.6H637v33.6z"/></g></svg>