<?xml version="1.0" standalone="no"?>
<!DOCTYPE svg PUBLIC "-//W3C//DTD SVG 20010904//EN"
 "http://www.w3.org/TR/2001/REC-SVG-20010904/DTD/svg10.dtd">
<svg version="1.0" xmlns="http://www.w3.org/2000/svg"
 width="1200.000000pt" height="1075.000000pt" viewBox="0 0 1200.000000 1075.000000"
 preserveAspectRatio="xMidYMid meet">

<g transform="translate(0.000000,1075.000000) scale(0.100000,-0.100000)"
fill="#ffffff" stroke="none">
<path d="M6967 10219 c-52 -319 -194 -539 -687 -1069 -85 -91 -557 -570 -1050
-1065 -986 -991 -1110 -1122 -1292 -1361 -289 -380 -447 -818 -448 -1241 0
-175 16 -320 48 -418 l26 -80 18 125 c68 466 229 761 702 1285 55 61 541 553
1081 1095 540 542 1018 1026 1062 1076 284 321 470 619 539 864 27 95 27 96
31 498 3 221 1 402 -4 402 -4 0 -16 -50 -26 -111z"/>
<path d="M6976 9137 c-35 -270 -150 -483 -444 -824 -187 -217 -279 -312 -1231
-1272 -954 -963 -976 -986 -1138 -1186 -396 -490 -573 -950 -533 -1380 26
-280 103 -513 207 -623 51 -54 51 -53 13 83 -34 123 -38 309 -10 445 64 312
263 653 590 1015 40 44 492 501 1004 1015 885 889 1012 1021 1171 1220 144
181 278 410 339 578 49 137 56 212 56 608 0 338 -8 446 -24 321z"/>
<path d="M6988 8024 c-5 -4 -8 -21 -8 -38 0 -53 -47 -240 -79 -317 -84 -201
-241 -410 -594 -792 -78 -83 -508 -521 -957 -972 -449 -451 -849 -857 -889
-903 -250 -288 -380 -536 -437 -837 -26 -136 -24 -393 4 -506 48 -194 117
-324 231 -431 97 -92 231 -156 276 -130 15 8 12 12 -19 31 -51 32 -111 104
-146 175 -114 233 -59 595 142 936 129 219 167 260 1053 1150 805 808 918 928
1067 1120 198 256 324 515 358 730 12 83 10 797 -2 784z"/>
<path d="M7766 7160 c106 -60 184 -169 219 -305 20 -77 20 -259 -1 -365 -43
-228 -168 -477 -362 -720 -42 -52 -211 -230 -375 -395 -165 -165 -349 -358
-409 -430 -193 -230 -341 -469 -407 -657 -58 -166 -61 -201 -61 -623 0 -212 4
-385 8 -385 4 0 13 36 20 81 27 172 122 396 245 580 152 228 330 429 794 894
186 187 377 385 424 440 238 277 356 494 420 774 26 112 36 375 20 492 -44
303 -165 544 -312 620 -37 19 -63 23 -158 25 l-115 3 50 -29z"/>
<path d="M8431 6417 c80 -208 80 -463 -2 -709 -41 -125 -123 -289 -210 -423
-149 -229 -263 -358 -729 -830 -212 -214 -430 -439 -484 -499 -336 -375 -530
-682 -609 -964 -20 -72 -21 -105 -25 -492 -2 -228 -1 -412 2 -409 3 3 13 46
21 95 44 251 135 449 323 701 141 188 298 359 747 813 423 429 572 590 721
781 371 475 535 919 495 1340 -27 286 -111 574 -187 640 -11 9 -35 19 -55 22
l-36 5 28 -71z"/>
<path d="M8746 5273 c-3 -21 -8 -65 -11 -98 -35 -328 -156 -623 -383 -928
-172 -232 -334 -409 -897 -977 -532 -537 -675 -700 -834 -952 -53 -85 -121
-210 -121 -223 0 -3 111 -5 248 -5 l247 0 386 383 c723 715 924 938 1120 1240
174 267 298 638 317 942 10 157 -15 569 -38 629 -14 37 -27 32 -34 -11z"/>
<path d="M3890 3809 c0 -5 5 -7 10 -4 6 3 10 8 10 11 0 2 -4 4 -10 4 -5 0 -10
-5 -10 -11z"/>
<path d="M4955 2723 c-319 -26 -380 -35 -1240 -188 -406 -73 -441 -79 -725
-129 -655 -116 -887 -158 -903 -164 -20 -8 -1319 -1806 -1307 -1810 4 -1 160
24 346 57 334 59 843 149 2014 357 819 145 961 169 1147 193 623 79 1036 32
1305 -150 136 -93 226 -199 303 -360 l45 -94 0 613 0 612 -310 0 -310 0 0 215
0 215 311 0 311 0 -7 93 c-12 175 -51 280 -135 365 -89 90 -240 149 -444 171
-87 10 -304 12 -401 4z"/>
<path d="M7604 2317 c-409 -411 -583 -592 -709 -739 -351 -408 -501 -707 -521
-1043 l-5 -90 28 60 c98 211 214 339 389 431 188 99 373 136 684 137 303 1
478 -20 1088 -127 172 -31 404 -71 515 -90 111 -19 712 -123 1336 -231 624
-107 1135 -194 1136 -193 6 8 -1297 1795 -1316 1806 -13 6 -258 53 -544 103
-286 49 -554 96 -595 104 -116 21 -222 40 -685 120 -236 42 -439 77 -450 80
-16 3 -92 -67 -351 -328z"/>
<path d="M6370 1324 c0 -310 8 -403 24 -271 15 135 93 340 191 503 30 51 55
95 55 98 0 3 -61 6 -135 6 l-135 0 0 -336z"/>
</g>
</svg>
